<svg width="208" height="254" viewBox="0 0 208 254" fill="none" xmlns="http://www.w3.org/2000/svg">
<g filter="url(#filter0_dd_11_61)">
<path d="M193.453 94.5992C193.283 96.7103 193.072 98.9665 192.811 101.556C191.205 117.862 188.882 132.025 185.702 144.867C182.587 157.477 178.103 170.267 171.85 184.252C173.964 186.694 176.016 189.187 178.02 191.731C185.323 175.872 190.478 161.495 193.989 147.28C197.282 133.969 199.687 119.327 201.343 102.543C201.872 97.2014 202.22 93.21 202.397 89.0124C199.319 91.9515 196.022 93.6408 193.453 94.5992ZM201.994 69.5466C201.994 69.5466 201.987 69.4867 201.987 69.4525C201.937 68.6997 201.841 67.7669 201.619 66.7051C201.276 65.0012 200.789 63.7154 200.348 62.6693C200.232 62.3949 200.115 62.1461 200.007 61.8975C199.263 60.1909 198.455 58.7064 197.544 57.358C194.74 53.1926 191.524 50.8631 189.403 49.3188C186.101 46.9289 183.389 45.6374 181.766 44.8745C177.228 42.7247 173.531 41.7689 171.326 41.199C169.693 40.7781 166.302 39.9953 161.934 39.4971C159.129 39.1798 156.08 39.0149 153.124 39.0217C150.404 39.0385 147.62 39.2003 145.07 39.4918C142.962 39.7349 139.099 40.1805 134.16 41.6026C135.943 44.4104 137.844 47.1419 139.887 49.729C142.532 49.1559 144.641 48.9128 145.97 48.7588C148.228 48.4996 150.721 48.3531 153.159 48.343C155.8 48.3257 158.52 48.4713 161.026 48.761C165.064 49.223 168.18 49.9698 169.342 50.268C171.39 50.7942 174.49 51.6007 178.331 53.4211C179.781 54.1059 181.968 55.1462 184.629 57.0787C186.452 58.3902 188.706 60.0379 190.614 62.8721C191.214 63.7568 191.749 64.7607 192.277 65.9356C192.742 66.9904 193.036 67.6936 193.241 68.7296C193.424 69.6201 193.436 70.2615 193.434 70.5009L193.434 70.5779C193.424 70.937 193.383 71.2532 193.342 71.5009C193.309 71.6974 193.277 71.8511 193.252 71.945C192.97 73.0463 192.376 73.7951 192.059 74.195C191.052 75.4541 189.056 76.5958 186.44 77.4086C183.4 78.3554 180.891 78.4677 179.044 78.4644L178.879 78.4634C171.654 78.4172 165.743 76.9256 163.53 76.2872C160.227 75.334 153.368 73.3489 145.816 67.9046C143.985 66.5845 142.226 65.1281 140.553 63.5781C138.771 61.9334 137.084 60.1695 135.476 58.3292C133.791 56.3858 132.2 54.3489 130.68 52.2441C129.956 51.2218 129.239 50.1825 128.538 49.1347C127.246 47.1938 126.047 45.2279 124.888 43.3391C122.18 38.9263 119.371 34.4873 115.88 30.7536C115.162 29.9794 114.412 29.2306 113.63 28.5158C110.395 25.5448 104.949 21.4053 97.3418 18.5261C87.201 14.69 78.0477 15.0163 72.161 15.9621C66.9669 16.8011 61.6724 18.5802 56.8448 21.1062C55.0621 22.0354 52.6078 23.4735 49.8588 25.5168C46.0829 28.3232 41.7652 32.2549 37.934 37.5665C36.4825 39.5669 34.3229 42.871 32.235 47.2617C31.215 49.4016 29.7307 52.8469 28.4772 57.089C27.8182 59.3167 25.8095 66.0851 25.5676 80.5442C25.4498 87.8977 25.7478 92.9364 26.4795 101.441C27.1234 108.945 27.9721 118.836 30.2343 131.447C32.843 131.669 35.4514 131.942 38.0516 132.266C40.6361 132.591 43.2043 132.984 45.7725 133.402C48.1996 133.742 50.6101 134.22 53.0128 134.697C55.3447 135.165 57.6764 135.684 59.992 136.246C62.2998 136.8 64.6074 137.405 66.8988 138.061C69.1825 138.708 71.458 139.398 73.7175 140.131C75.9769 140.872 78.2283 141.648 80.4558 142.474C82.6912 143.293 84.9027 144.162 87.1061 145.065C89.3016 145.977 91.489 146.923 93.6524 147.921C95.816 148.909 97.9634 149.949 100.095 151.023C102.227 152.097 104.342 153.214 106.434 154.373C108.533 155.541 110.609 156.735 112.661 157.979C114.721 159.215 116.756 160.502 118.768 161.824C118.949 161.936 119.137 162.057 119.309 162.178C119.324 162.186 119.34 162.195 119.348 162.203C131.748 170.398 143.353 180.101 153.966 191.218C157.207 194.616 160.361 198.151 163.412 201.805C161.82 204.873 160.133 207.933 158.322 210.829C143.863 192.658 126.773 177.55 107.453 165.882C100.733 161.819 93.8301 158.235 86.7744 155.128C86.7587 155.12 86.7431 155.111 86.7274 155.102C74.7874 149.861 62.4062 145.993 49.6622 143.535C48.3823 143.287 47.1023 143.048 45.8143 142.834C44.5264 142.612 43.2462 142.407 41.9581 142.22C40.67 142.032 39.3818 141.844 38.0935 141.673C38.0935 141.673 37.9444 141.655 37.8737 141.646C36.5775 141.476 35.2657 141.313 33.9615 141.177C33.3487 141.104 32.728 141.04 32.1151 140.985C34.2912 151.073 36.9962 160.822 40.1759 170.103C40.1759 170.103 41.456 170.334 41.613 170.36C42.3355 170.493 43.0657 170.635 43.7959 170.785C45.7039 171.165 47.6115 171.596 49.5113 172.036C50.5004 172.264 51.4895 172.493 52.4785 172.739C59.2998 174.399 66.0077 176.588 72.5554 179.23C78.7424 181.723 84.7774 184.635 90.637 187.939C96.4807 191.243 102.141 194.94 107.571 199.002C113.017 203.073 118.24 207.519 123.178 212.288C125.866 214.888 128.467 217.581 130.989 220.36C133.409 223.018 135.75 225.778 138.019 228.623C137.216 228.797 136.398 228.937 135.564 229.009C129.585 229.561 125.004 226.769 123.314 225.544C119.667 222.895 116.751 219.114 113.406 216.048C99.6575 203.441 83.6428 193.633 65.6517 186.771C63.8557 186.083 62.036 185.43 60.2161 184.803C58.3882 184.184 56.5446 183.574 54.6927 183.032C52.8173 182.473 50.9414 181.973 49.0498 181.499C47.3544 181.069 45.6509 180.674 43.9393 180.312C49.1849 193.549 55.4441 205.672 62.5696 216.313C69.6251 226.834 77.8009 236.738 89.8057 238.003C90.6542 238.094 91.4794 238.142 92.2891 238.147C98.3897 238.186 103.247 235.985 106.246 234.132C103.957 231.86 101.597 229.638 99.1501 227.459C96.9273 228.368 93.9981 229.076 90.6434 228.721C83.7611 227.993 78.1585 222.621 73.1927 216.031C73.0991 215.902 72.9979 215.773 72.8965 215.644C72.5146 215.12 72.1326 214.596 71.7508 214.063C70.9872 212.998 70.2472 211.916 69.5152 210.816C66.1043 205.732 62.9002 200.273 59.9181 194.507C64.3812 196.109 68.7174 197.89 72.9266 199.867C84.496 205.285 95.0737 212.1 104.558 220.25C107.537 222.809 110.381 225.538 113.162 228.335C114.904 230.082 116.567 231.863 118.547 233.295C121.576 235.504 127.913 239.076 136.283 238.3C141.632 237.804 146.748 235.716 151.567 232.07C149.861 229.588 148.1 227.139 146.267 224.759C145.761 224.097 145.238 223.435 144.716 222.782C139.412 216.095 133.705 209.867 127.649 204.142C125.625 202.213 123.554 200.353 121.45 198.544C102.247 182.036 79.9402 170.229 55.9699 164.03C52.8695 163.232 49.7451 162.519 46.5886 161.909C45.5482 158.636 44.5632 155.294 43.6414 151.911C46.6258 152.4 49.5782 152.966 52.5144 153.618C68.6241 157.167 84.0504 163.089 98.4567 171.16C110.435 177.864 121.695 186.06 132.059 195.627C133.442 196.901 134.818 198.21 136.169 199.536C137.529 200.87 138.872 202.23 140.2 203.615C141.527 205 142.839 206.411 144.127 207.839C145.415 209.275 146.695 210.729 147.944 212.207C151.182 216.025 154.254 219.995 157.302 224C157.396 224.12 158.511 225.504 158.448 225.572C164.206 218.982 168.629 210.86 171.838 204.51C172.491 203.231 173.128 201.961 173.749 200.7C171.792 198.122 169.788 195.595 167.728 193.127C167.72 193.119 167.713 193.102 167.697 193.093C151.278 173.969 132.141 158.266 110.738 146.345C90.1509 134.874 68.2017 127.345 45.3694 123.907C42.7696 123.514 40.1616 123.173 37.5376 122.891C36.1645 113.852 35.5279 106.45 35.0231 100.564C34.3205 92.4183 34.0368 87.6191 34.1517 80.7102C34.369 67.6364 36.0806 61.8494 36.6431 59.9461C37.776 56.1222 39.14 53.0439 39.8493 51.5434C41.2438 48.6277 42.9528 45.714 44.674 43.3306C48.0848 38.6149 51.9511 35.1848 55.2526 32.8115C57.3376 31.3198 59.1841 30.2456 60.5567 29.5189C64.6192 27.3899 69.0629 25.8962 73.4149 25.1972C78.3494 24.3992 86.0164 24.1233 94.518 27.3417C101.216 29.8731 105.893 33.6314 108.089 35.6465C112.201 39.4098 115.111 44.1574 118.192 49.1797C119.351 51.077 120.557 53.0345 121.842 54.9753C127.635 63.7007 134.1 70.6687 141.073 75.6903C149.791 81.9716 157.575 84.2276 161.311 85.3119C164.457 86.2214 170.894 87.7505 178.811 87.8012L179.007 87.8024C181.24 87.8081 184.677 87.6677 188.805 86.3771C190.727 85.7823 192.437 85.0407 193.945 84.1695L193.944 84.1866C195.657 83.1115 197.46 81.5838 198.975 79.3958C199.705 78.3486 201.213 76.1776 201.8 72.8035C201.964 71.8724 202.04 70.9836 202.038 70.137C202.023 69.9402 202.009 69.752 201.994 69.5552L201.994 69.5466Z" fill="white"/>
</g>
<defs>
<filter id="filter0_dd_11_61" x="0.0602827" y="0.0197954" width="207.507" height="253.715" filterUnits="userSpaceOnUse" color-interpolation-filters="sRGB">
<feFlood flood-opacity="0" result="BackgroundImageFix"/>
<feColorMatrix in="SourceAlpha" type="matrix" values="0 0 0 0 0 0 0 0 0 0 0 0 0 0 0 0 0 0 127 0" result="hardAlpha"/>
<feOffset dx="-10.156"/>
<feGaussianBlur stdDeviation="7.6632"/>
<feComposite in2="hardAlpha" operator="out"/>
<feColorMatrix type="matrix" values="0 0 0 0 0 0 0 0 0 0 0 0 0 0 0 0 0 0 0.25 0"/>
<feBlend mode="normal" in2="BackgroundImageFix" result="effect1_dropShadow_11_61"/>
<feColorMatrix in="SourceAlpha" type="matrix" values="0 0 0 0 0 0 0 0 0 0 0 0 0 0 0 0 0 0 127 0" result="hardAlpha"/>
<feOffset dx="-7.1436" dy="5.71488"/>
<feGaussianBlur stdDeviation="1.981"/>
<feComposite in2="hardAlpha" operator="out"/>
<feColorMatrix type="matrix" values="0 0 0 0 0 0 0 0 0 0 0 0 0 0 0 0 0 0 0.25 0"/>
<feBlend mode="normal" in2="effect1_dropShadow_11_61" result="effect2_dropShadow_11_61"/>
<feBlend mode="normal" in="SourceGraphic" in2="effect2_dropShadow_11_61" result="shape"/>
</filter>
</defs>
</svg>
