<svg width="191" height="183" viewBox="0 0 191 183" fill="none" xmlns="http://www.w3.org/2000/svg">
<path d="M125.442 80.8161C125.384 81.5346 125.309 82.3055 125.219 83.1894C124.651 88.749 123.808 93.5822 122.642 97.9655C121.498 102.269 119.836 106.638 117.513 111.416C118.315 112.244 119.096 113.09 119.857 113.952C122.574 108.532 124.482 103.622 125.772 98.7698C126.981 94.2252 127.853 89.2322 128.438 83.5073C128.624 81.6856 128.745 80.3249 128.801 78.8935C127.648 79.9029 126.41 80.4855 125.442 80.8161ZM128.603 72.2577C128.602 72.2474 128.601 72.2362 128.599 72.2259C128.58 71.97 128.539 71.6513 128.456 71.2904C128.322 70.7118 128.136 70.2747 127.964 69.917C127.92 69.8248 127.877 69.7382 127.836 69.6555C127.549 69.0761 127.241 68.5722 126.895 68.1128C125.829 66.6989 124.61 65.912 123.805 65.3906C122.557 64.5839 121.529 64.1507 120.915 63.8924C119.2 63.1691 117.804 62.852 116.971 62.6629C116.353 62.5222 115.072 62.2631 113.426 62.1025C112.365 61.9992 111.216 61.9499 110.102 61.9611C109.076 61.9714 108.027 62.0326 107.067 62.1383C106.271 62.2257 104.815 62.3855 102.958 62.883C103.637 63.8368 104.358 64.7627 105.137 65.6402C106.132 65.4399 106.926 65.3525 107.426 65.2976C108.28 65.2038 109.217 65.1498 110.136 65.1403C111.133 65.1299 112.16 65.1736 113.105 65.2658C114.627 65.4145 115.806 65.6608 116.242 65.7602C117.017 65.9366 118.189 66.2029 119.64 66.8141C120.189 67.0454 121.017 67.3943 122.026 68.0468C122.714 68.4911 123.57 69.0451 124.296 70.0068C124.522 70.3065 124.729 70.6474 124.928 71.0488C125.106 71.4072 125.219 71.6449 125.301 71.9978C125.372 72.3006 125.378 72.5208 125.378 72.6018C125.379 72.6114 125.379 72.6201 125.378 72.6289C125.375 72.7513 125.361 72.8586 125.346 72.942C125.333 73.0096 125.321 73.062 125.312 73.0938C125.207 73.4706 124.985 73.7257 124.866 73.8624C124.49 74.2932 123.741 74.6866 122.757 74.9711C121.613 75.301 120.667 75.3455 119.971 75.3479H119.907C117.182 75.3479 114.951 74.8535 114.114 74.6397C112.868 74.3218 110.275 73.6589 107.416 71.8213C106.722 71.3739 106.056 70.8835 105.42 70.3581C104.746 69.801 104.104 69.2049 103.495 68.5794C102.853 67.9205 102.248 67.229 101.672 66.5145C101.393 66.1679 101.121 65.8166 100.856 65.4606C100.365 64.8009 99.9059 64.1356 99.4634 63.4926C98.4321 61.9944 97.3644 60.4875 96.0394 59.2222C95.7644 58.9599 95.4796 58.7063 95.1844 58.4655C93.9581 57.4617 91.8922 56.0612 89.019 55.0979C85.184 53.8112 81.7357 53.9423 79.5177 54.2793C77.561 54.5774 75.5671 55.1949 73.7535 56.066C73.0854 56.3871 72.1616 56.8823 71.1303 57.5841C69.7139 58.5474 68.0953 59.8977 66.662 61.7163C66.1216 62.4014 65.3135 63.5332 64.537 65.0314C64.1576 65.7634 63.6076 66.9405 63.1441 68.3894C62.9006 69.1492 62.1613 71.4621 62.1046 76.3883C62.0755 78.8943 62.2025 80.6102 62.4986 83.5065C62.759 86.0626 63.1036 89.4309 63.9853 93.7244C64.9706 93.7936 65.955 93.881 66.937 93.9883C67.9101 94.0932 68.8808 94.2196 69.8498 94.3563C70.7647 94.4684 71.6755 94.6242 72.5823 94.7831C73.464 94.9381 74.3432 95.109 75.2184 95.295C76.0912 95.4802 76.9608 95.6812 77.8263 95.8974C78.6902 96.1136 79.5493 96.3441 80.4043 96.5905C81.2576 96.8361 82.107 97.0968 82.9507 97.3726C83.7935 97.6476 84.6307 97.9377 85.4631 98.2429C86.2938 98.5473 87.1197 98.8668 87.9391 99.2006C88.7577 99.5336 89.5707 99.8818 90.3771 100.244C91.1836 100.607 91.9828 100.983 92.7755 101.373C93.5682 101.764 94.3536 102.168 95.1318 102.586C95.91 103.005 96.6808 103.437 97.4436 103.883C97.5124 103.923 97.5811 103.963 97.6491 104.004C97.6539 104.007 97.6588 104.009 97.6636 104.012C102.357 106.777 106.757 110.06 110.785 113.826C112.017 114.977 113.213 116.173 114.372 117.413C113.781 118.46 113.152 119.506 112.474 120.499C106.98 114.337 100.5 109.227 93.1864 105.291C90.6416 103.922 88.0313 102.714 85.3628 101.672C85.3563 101.669 85.3507 101.667 85.3442 101.665C80.8306 99.9016 76.1511 98.6109 71.3422 97.801C70.8577 97.7191 70.3732 97.642 69.887 97.5705C69.4033 97.499 68.918 97.433 68.4326 97.3718C67.9465 97.3106 67.4603 97.2478 66.9734 97.1922C66.9467 97.189 66.9192 97.1858 66.8925 97.1826C66.4007 97.1278 65.9081 97.0769 65.4146 97.0316C65.1825 97.0102 64.9503 96.9895 64.7182 96.9704C65.5635 100.406 66.6061 103.721 67.8276 106.876C67.851 106.931 68.3105 106.953 68.3695 106.963C68.6446 107.006 68.9196 107.052 69.1938 107.1C69.9161 107.227 70.6344 107.37 71.3535 107.516C71.7273 107.591 72.101 107.668 72.4739 107.748C75.0494 108.299 77.5828 109.031 80.0597 109.916C82.3974 110.753 84.6825 111.731 86.8973 112.845C89.1104 113.958 91.254 115.206 93.311 116.577C95.3753 117.955 97.353 119.458 99.2289 121.074C100.248 121.952 101.236 122.863 102.193 123.805C103.111 124.707 104.001 125.641 104.863 126.606C104.561 126.669 104.254 126.716 103.939 126.744C101.685 126.945 99.952 126.002 99.3114 125.588C97.9282 124.694 96.8208 123.413 95.5516 122.375C90.3359 118.108 84.2756 114.799 77.4753 112.502C76.7942 112.271 76.109 112.052 75.4207 111.844C74.7283 111.634 74.0318 111.433 73.3321 111.25C72.6251 111.065 71.9149 110.898 71.2015 110.74C70.5608 110.6 69.9178 110.469 69.2723 110.348C71.2807 114.848 73.6702 118.966 76.3849 122.576C79.0688 126.146 82.1757 129.504 86.7047 129.909C87.0251 129.938 87.3373 129.951 87.6423 129.951C89.9427 129.951 91.7684 129.19 92.8944 128.552C92.0281 127.782 91.131 127.031 90.204 126.295C89.3676 126.609 88.2651 126.857 86.9984 126.744C84.4018 126.512 82.276 124.691 80.3881 122.457C80.3517 122.414 80.3145 122.37 80.2773 122.325C80.1309 122.149 79.9844 121.97 79.8397 121.79C79.5509 121.428 79.267 121.059 78.9879 120.688C77.6896 118.961 76.469 117.11 75.3325 115.15C77.019 115.686 78.6587 116.285 80.249 116.948C84.6243 118.77 88.6283 121.069 92.2271 123.827C93.3539 124.691 94.4337 125.616 95.4893 126.562C96.151 127.155 96.7811 127.756 97.5318 128.243C98.6804 128.987 101.077 130.192 104.233 129.909C106.248 129.729 108.173 129.006 109.981 127.752C109.332 126.908 108.661 126.08 107.965 125.271C107.77 125.046 107.573 124.822 107.375 124.6C105.359 122.333 103.192 120.225 100.895 118.286C100.126 117.634 99.3413 117.003 98.5429 116.392C91.2612 110.809 82.8212 106.834 73.7697 104.774C72.5984 104.507 71.4166 104.272 70.2259 104.07C69.8247 102.956 69.447 101.822 69.0919 100.669C70.2162 100.83 71.3333 101.018 72.4415 101.232C78.5228 102.408 84.3557 104.391 89.8077 107.11C94.3383 109.368 98.606 112.137 102.536 115.374C103.062 115.807 103.582 116.249 104.095 116.698C104.612 117.15 105.122 117.611 105.625 118.079C106.129 118.548 106.626 119.025 107.116 119.51C107.607 119.997 108.09 120.489 108.566 120.99C109.796 122.285 110.965 123.63 112.122 124.988C112.157 125.029 112.581 125.5 112.56 125.522C114.714 123.265 116.362 120.487 117.558 118.316C117.8 117.878 118.036 117.444 118.268 117.012C117.525 116.138 116.762 115.283 115.981 114.446C115.977 114.442 115.973 114.437 115.969 114.433C109.731 107.953 102.477 102.641 94.3787 98.626C86.5866 94.7625 78.2939 92.2453 69.6743 91.1223C68.6939 90.9943 67.7087 90.8846 66.7194 90.7932C66.1799 87.715 65.9226 85.1954 65.718 83.1894C65.4341 80.4139 65.3127 78.779 65.3394 76.424C65.3912 71.9676 66.0229 69.9917 66.2308 69.3432C66.6482 68.0381 67.1554 66.985 67.4199 66.4739C67.9368 65.478 68.5758 64.4798 69.2197 63.6635C70.4937 62.0485 71.9432 60.8714 73.1816 60.0551C73.963 59.5409 74.6595 59.1705 75.1748 58.9225C76.6995 58.1897 78.3723 57.6707 80.0128 57.4212C81.8708 57.139 84.761 57.0285 87.9739 58.1063C90.5057 58.9559 92.2805 60.226 93.1128 60.9079C94.6699 62.1828 95.7789 63.7931 96.9526 65.4979C97.3959 66.1417 97.8537 66.8069 98.3455 67.4658C100.55 70.4257 103.006 72.7862 105.645 74.4823C108.948 76.6052 111.888 77.3555 113.3 77.7164C114.489 78.02 116.921 78.5271 119.906 78.5271H119.98C120.82 78.5239 122.116 78.469 123.669 78.0208C124.392 77.8125 125.037 77.5574 125.601 77.257V77.2625C126.247 76.8938 126.921 76.3676 127.488 75.6189C127.759 75.2612 128.323 74.5173 128.538 73.3648C128.597 73.0485 128.622 72.7449 128.622 72.4556C128.616 72.3896 128.61 72.3237 128.603 72.2577Z" fill="#BC9061"/>
<path d="M52.3808 28.8837L41.8251 26.4661L43.222 16.391L44.818 15.3042L42.6085 25.1834L54.051 27.7463L52.3808 28.8837ZM44.3638 34.3428L35.6504 21.5469L36.9123 20.6876L45.6257 33.4835L44.3638 34.3428Z" fill="#BC9667"/>
<path d="M31.5624 47.9426L23.3334 33.5059L24.2095 32.4242L40.0409 37.4742L39.0093 38.7478L31.6201 36.3458L28.4124 40.3064L32.594 46.6689L31.5624 47.9426ZM24.326 34.1076L28.0989 39.8502L31.0805 36.1688L24.4108 34.0029L24.326 34.1076Z" fill="#BC9667"/>
<path d="M133.401 25.3764L147.181 16.0894L148.325 16.8821L144.475 33.0471L143.128 32.1139L144.97 24.5655L140.78 21.6634L134.748 26.3097L133.401 25.3764ZM146.655 17.1243L141.211 21.3166L145.106 24.0142L146.766 17.201L146.655 17.1243Z" fill="#BC9667"/>
<path d="M38.1521 146.202L27.463 156.781C27.6209 156.94 27.9787 157.239 28.5364 157.677L32.0248 160.416L31.2231 161.209L22.0001 151.889L22.8018 151.096L25.5042 154.613C25.9362 155.175 26.2311 155.536 26.3891 155.695L37.0782 145.117L38.1521 146.202Z" fill="#BC9667"/>
<path d="M48.9998 174.407L56.7402 161L58.0624 161.763L54.1922 168.467L50.322 175.17L48.9998 174.407Z" fill="#BC9667"/>
<path d="M51.0562 157.309L41.4082 169.416L36.0529 165.148L36.7282 164.301L39.484 167.147C39.9673 167.646 40.3026 167.969 40.4899 168.119L44.6936 162.844C44.5415 162.722 44.1648 162.45 43.5637 162.028L40.5463 159.906L41.1803 159.11L43.922 161.578C44.468 162.07 44.8171 162.376 44.9693 162.498L49.5865 156.704C49.3758 156.536 48.9796 156.276 48.3977 155.926L44.9728 153.847L45.6482 153L51.0562 157.309Z" fill="#BC9667"/>
<path d="M18.2002 146.967L16.5856 144.428C15.7341 143.089 15.3553 141.876 15.4493 140.787C15.5227 139.694 16.0571 138.831 17.0523 138.198C17.8236 137.707 18.6129 137.533 19.4202 137.676C20.2195 137.806 20.9833 138.252 21.7117 139.013L21.8237 138.941C21.4553 138.005 21.4071 137.078 21.6794 136.159C21.9516 135.241 22.4512 134.365 23.1782 133.53C23.8467 132.768 24.3388 132.127 24.6545 131.606C24.9497 131.082 25.1085 130.617 25.1308 130.213C25.1451 129.795 25.0713 129.363 24.9094 128.917L25.0213 128.845L25.5154 129.622C25.8688 130.178 26.0625 130.702 26.0964 131.195C26.1223 131.675 25.9791 132.192 25.6671 132.745C25.355 133.298 24.8545 133.954 24.1655 134.711C23.1171 135.893 22.5182 136.956 22.3688 137.903C22.2195 138.849 22.4219 139.758 22.9762 140.63L23.0485 140.743L22.7126 140.957L22.6403 140.843C21.347 138.81 19.7797 138.379 17.9385 139.55C16.1222 140.705 15.8205 142.236 17.0335 144.143L17.8287 145.394L30.4435 137.37L31.2629 138.659L18.2002 146.967Z" fill="#BC9667"/>
<path d="M8.62109 131.607L8.06788 130.184L16.7664 126.803C18.4292 126.156 19.5678 125.24 20.1822 124.053C20.7775 122.859 20.7823 121.508 20.1965 120.001C19.8277 119.052 19.3291 118.299 18.7006 117.74C18.053 117.173 17.333 116.826 16.5407 116.701C15.743 116.561 14.9304 116.668 14.103 117.022L4.55336 121.144L4.00015 119.721L13.8264 116.311C15.4971 115.725 16.9429 115.742 18.1637 116.359C19.379 116.962 20.3257 118.136 21.0037 119.88C21.7358 121.763 21.7721 123.443 21.1124 124.92C20.439 126.403 19.161 127.51 17.2784 128.242L8.62109 131.607Z" fill="#BC9667"/>
<path d="M16.5153 110.153L15.1833 110.222L15.1628 110.089C15.5696 109.435 15.8556 108.725 16.021 107.958C16.1864 107.19 16.2145 106.451 16.1053 105.741C15.9506 104.735 15.5558 103.963 14.9211 103.425C14.2718 102.888 13.4881 102.691 12.57 102.832C12.06 102.911 11.6046 103.102 11.2038 103.406C10.8008 103.695 10.4144 104.14 10.0445 104.742C9.67241 105.33 9.29458 106.122 8.91104 107.12C8.64456 107.812 8.35897 108.477 8.05425 109.115C7.73495 109.754 7.34144 110.3 6.87372 110.75C6.39142 111.203 5.77868 111.486 5.03548 111.601C3.92798 111.771 2.97649 111.501 2.18103 110.79C1.37099 110.082 0.86358 109.062 0.658809 107.731C0.567799 107.139 0.535539 106.493 0.56203 105.792C0.573948 105.094 0.646187 104.545 0.778748 104.146L2.0199 104.069L2.04037 104.202C1.26657 105.184 0.980919 106.333 1.18341 107.65C1.32903 108.597 1.68665 109.322 2.25627 109.825C2.81132 110.33 3.48959 110.521 4.29107 110.398C4.88854 110.306 5.38197 110.071 5.77136 109.693C6.14391 109.302 6.46637 108.829 6.73875 108.272C6.99656 107.718 7.24139 107.127 7.47325 106.501C7.74974 105.777 8.05151 105.072 8.37855 104.385C8.70332 103.684 9.13372 103.088 9.66975 102.597C10.1889 102.093 10.893 101.773 11.7819 101.636C12.598 101.51 13.3489 101.592 14.0346 101.88C14.7058 102.17 15.2709 102.644 15.7299 103.3C16.1865 103.942 16.4865 104.729 16.6299 105.661C16.7209 106.252 16.755 106.959 16.7321 107.78C16.7092 108.601 16.637 109.392 16.5153 110.153Z" fill="#BC9667"/>
<path d="M73.863 18.2132L73.6718 16.8932L73.8025 16.8605C74.4904 17.2052 75.2241 17.4245 76.0036 17.5184C76.783 17.6123 77.5213 17.5721 78.2183 17.3978C79.2057 17.1509 79.9382 16.6866 80.4158 16.0049C80.8897 15.3089 81.0141 14.5103 80.7888 13.6092C80.6636 13.1086 80.4312 12.6728 80.0916 12.3018C79.7665 11.9271 79.2871 11.5835 78.6535 11.2707C78.0344 10.9544 77.2104 10.6513 76.1813 10.3615C75.4675 10.16 74.7792 9.93699 74.1163 9.69239C73.4499 9.43349 72.8707 9.09196 72.379 8.6678C71.8836 8.22933 71.5448 7.64537 71.3624 6.91589C71.0906 5.82883 71.2718 4.85648 71.9059 3.99884C72.5365 3.12689 73.5052 2.52755 74.8121 2.2008C75.3929 2.05557 76.0334 1.96382 76.7336 1.92555C77.4301 1.87297 77.9832 1.89427 78.3927 1.98945L78.5842 3.21817L78.4535 3.25084C77.4041 2.57097 76.2332 2.3926 74.9408 2.71572C74.0115 2.94808 73.3227 3.37106 72.8744 3.98466C72.4225 4.58397 72.2949 5.27696 72.4916 6.06365C72.6382 6.65009 72.9177 7.11974 73.3299 7.4726C73.753 7.80753 74.2544 8.08492 74.8339 8.30476C75.4099 8.5103 76.0204 8.69961 76.6654 8.87269C77.4118 9.08121 78.1418 9.31662 78.8554 9.57894C79.5835 9.83762 80.2169 10.2112 80.7556 10.6996C81.3052 11.1701 81.6891 11.8416 81.9073 12.7141C82.1075 13.5151 82.0958 14.2703 81.872 14.9797C81.6447 15.6749 81.2254 16.2812 80.6142 16.7988C80.0176 17.3127 79.2618 17.684 78.347 17.9127C77.7662 18.058 77.0658 18.1571 76.2459 18.2101C75.426 18.2631 74.6317 18.2641 73.863 18.2132Z" fill="#BC9667"/>
<path d="M90.1534 15.819L89.359 0.801346C89.1502 0.812388 88.7212 0.879377 88.0719 1.00231L84.0103 1.77085L83.9507 0.644531L96.1398 -0.000315098L96.1993 1.12601L92.0793 0.790309C91.4206 0.736568 90.9869 0.715219 90.7782 0.726261L91.5727 15.7439L90.1534 15.819Z" fill="#BC9667"/>
<path d="M148.86 36.877L159.071 25.8369C158.918 25.695 158.571 25.4341 158.03 25.0544L154.647 22.6786L155.413 21.8506L164.374 30.1388L163.608 30.9668L160.976 27.7793C160.555 27.2697 160.268 26.9439 160.115 26.802L149.903 37.842L148.86 36.877Z" fill="#BC9667"/>
<path d="M98.3331 8.02902C98.4152 6.89672 98.679 5.8589 99.1246 4.91555C99.5851 3.95851 100.182 3.14439 100.915 2.47319C101.663 1.7883 102.51 1.28057 103.456 0.950006C104.417 0.605747 105.433 0.472396 106.503 0.549954C107.573 0.627511 108.552 0.905401 109.439 1.38362C110.342 1.84815 111.107 2.47272 111.734 3.25733C112.377 4.02824 112.85 4.91992 113.154 5.93236C113.473 6.93111 113.591 7.99663 113.509 9.12892C113.427 10.2612 113.156 11.3059 112.695 12.2629C112.25 13.2063 111.653 14.0204 110.905 14.7053C110.171 15.3765 109.324 15.8842 108.363 16.2285C107.417 16.559 106.409 16.6855 105.339 16.608C104.269 16.5304 103.283 16.2594 102.381 15.7949C101.493 15.3166 100.728 14.6921 100.085 13.9212C99.4578 13.1365 98.9846 12.2449 98.6658 11.2461C98.3619 10.2337 98.2511 9.16131 98.3331 8.02902ZM99.9174 8.14384C99.8087 9.64377 99.9635 10.978 100.382 12.1466C100.801 13.3004 101.439 14.2262 102.297 14.924C103.156 15.6071 104.182 15.992 105.378 16.0786C106.573 16.1652 107.644 15.9325 108.593 15.3803C109.542 14.8135 110.307 13.982 110.89 12.886C111.472 11.7899 111.817 10.4993 111.925 9.0141C112.032 7.52888 111.877 6.20934 111.457 5.05549C111.039 3.88693 110.401 2.95376 109.544 2.25596C108.686 1.55817 107.66 1.16596 106.465 1.07934C105.27 0.992716 104.197 1.23283 103.248 1.79968C102.314 2.35284 101.549 3.17693 100.952 4.27196C100.371 5.35329 100.026 6.64392 99.9174 8.14384Z" fill="#BC9667"/>
<path d="M176.827 64.1841C177.924 63.8903 178.991 63.7991 180.028 63.9107C181.083 64.0319 182.048 64.3287 182.923 64.8012C183.815 65.2834 184.572 65.9171 185.195 66.7024C185.835 67.4973 186.294 68.4129 186.572 69.4493C186.85 70.4856 186.908 71.5014 186.748 72.4965C186.605 73.5013 186.266 74.4289 185.73 75.2792C185.213 76.1391 184.526 76.8786 183.669 77.4977C182.83 78.1264 181.862 78.5877 180.765 78.8815C179.669 79.1753 178.593 79.2616 177.538 79.1404C176.501 79.0289 175.536 78.7321 174.643 78.2499C173.769 77.7774 173.011 77.1437 172.371 76.3487C171.748 75.5635 171.298 74.6527 171.021 73.6163C170.743 72.58 170.675 71.5594 170.818 70.5546C170.979 69.5594 171.318 68.6319 171.836 67.7719C172.371 66.9217 173.058 66.1822 173.897 65.5534C174.754 64.9344 175.731 64.4779 176.827 64.1841ZM177.238 65.7184C175.786 66.1077 174.576 66.6915 173.609 67.4698C172.657 68.2444 171.992 69.1511 171.614 70.19C171.25 71.2251 171.223 72.3214 171.533 73.4789C171.843 74.6364 172.415 75.5724 173.247 76.287C174.094 76.9978 175.131 77.4485 176.357 77.6392C177.584 77.8299 178.916 77.7326 180.354 77.3471C181.793 76.9617 182.988 76.3818 183.941 75.6072C184.907 74.8289 185.58 73.9202 185.958 72.8813C186.336 71.8423 186.37 70.7441 186.059 69.5867C185.749 68.4292 185.171 67.495 184.324 66.7843C183.495 66.0832 182.466 65.6305 181.236 65.4264C180.023 65.2319 178.691 65.3292 177.238 65.7184Z" fill="#BC9667"/>
<path d="M181.192 92.2563L181.722 92.2954L181.332 97.5689L175.333 97.1254C174.704 96.4361 174.232 95.6119 173.919 94.6526C173.604 93.7072 173.489 92.6647 173.573 91.5253C173.66 90.358 173.938 89.2957 174.408 88.3385C174.893 87.3823 175.522 86.5626 176.297 85.8794C177.087 85.1973 177.982 84.6836 178.984 84.3385C179.984 84.0073 181.057 83.8841 182.204 83.9689C183.351 84.0537 184.395 84.3335 185.336 84.8082C186.275 85.2968 187.078 85.936 187.744 86.7258C188.425 87.5166 188.927 88.42 189.251 89.436C189.59 90.4531 189.716 91.5452 189.63 92.7125C189.593 93.2128 189.516 93.752 189.399 94.3302C189.282 94.9223 189.137 95.4844 188.964 96.0165C188.806 96.5498 188.626 96.9975 188.421 97.3596L187.194 97.1641L187.203 97.039C187.759 96.5212 188.198 95.883 188.52 95.1244C188.842 94.3658 189.036 93.5488 189.1 92.6734C189.197 91.3671 188.966 90.1973 188.406 89.164C187.862 88.1317 187.044 87.2958 185.953 86.6562C184.875 86.0317 183.587 85.6639 182.087 85.553C180.587 85.4421 179.251 85.6158 178.079 86.074C176.921 86.5472 175.989 87.2538 175.283 88.1936C174.593 89.1346 174.199 90.2582 174.103 91.5644C174.043 92.3704 174.106 93.1225 174.291 93.8208C174.475 94.533 174.769 95.1555 175.173 95.6884L180.907 96.1124L181.192 92.2563Z" fill="#BC9667"/>
<path d="M174.225 103L189.537 105.285L189.311 106.795L181.656 105.652L174 104.51L174.225 103Z" fill="#BC9667"/>
<path d="M160.514 37.0668C161.418 36.3805 162.372 35.8931 163.374 35.6045C164.397 35.3181 165.402 35.2284 166.391 35.3355C167.399 35.4448 168.34 35.7454 169.213 36.2373C170.106 36.7314 170.877 37.4058 171.526 38.2604C172.174 39.1151 172.612 40.0335 172.839 41.0156C173.087 41.9999 173.123 42.9868 172.948 43.9764C172.794 44.9681 172.437 45.9124 171.878 46.8093C171.339 47.7083 170.617 48.501 169.712 49.1873C168.808 49.8737 167.845 50.36 166.822 50.6464C165.819 50.935 164.814 51.0247 163.805 50.9154C162.817 50.8082 161.876 50.5076 160.983 50.0135C160.11 49.5217 159.349 48.8484 158.701 47.9937C158.052 47.1391 157.604 46.2196 157.357 45.2353C157.13 44.2532 157.093 43.2662 157.248 42.2745C157.422 41.285 157.779 40.3407 158.318 39.4416C158.878 38.5448 159.609 37.7532 160.514 37.0668ZM161.474 38.3322C160.276 39.2413 159.377 40.2388 158.776 41.3247C158.186 42.4017 157.913 43.4926 157.955 44.5973C158.01 45.6931 158.399 46.7183 159.124 47.6728C159.848 48.6274 160.731 49.2782 161.771 49.6253C162.824 49.9635 163.954 49.9892 165.162 49.7025C166.369 49.4157 167.566 48.8222 168.752 47.922C169.938 47.0218 170.826 46.0332 171.415 44.9562C172.017 43.8703 172.296 42.775 172.253 41.6702C172.211 40.5655 171.827 39.5359 171.103 38.5813C170.378 37.6268 169.49 36.9804 168.437 36.6422C167.405 36.3062 166.281 36.276 165.065 36.5517C163.869 36.8295 162.672 37.423 161.474 38.3322Z" fill="#BC9667"/>
<path d="M179.328 50.8662L179.976 52.131L166.594 58.9917C166.714 59.2273 166.944 59.5791 167.284 60.0471L169.359 62.8824L168.355 63.3969L165.552 57.9288L179.328 50.8662Z" fill="#BC9667"/>
<path d="M134.606 8.45481L129.427 23.0437L128.088 22.5682L132.837 9.18813L132.719 9.14617L124.52 17.1244L123.909 16.9076L121.519 6.46064L121.4 6.41868L119.446 12.6125L117.491 18.8063L116.151 18.3309L121.926 3.625L122.32 3.76485L125.062 15.7212L125.18 15.7631L133.188 7.95136L134.606 8.45481Z" fill="#BC9667"/>
<path d="M17.5537 84.4894L16.4091 96.3337L15.9689 96.2912L2.40338 84.9202C2.38034 85.1586 2.35715 85.7052 2.33379 86.5601L2.13479 94.3679L1.05615 94.2637L2.13587 83.0898L2.57613 83.1324L16.1416 94.5034C16.1661 94.2501 16.1893 93.7034 16.2112 92.8635L16.431 84.3809L17.5537 84.4894Z" fill="#BC9667"/>
<path d="M28.2064 52.3715L23.3094 63.2166L22.9063 63.0346L13.7242 47.9015C13.6256 48.1197 13.4277 48.6298 13.1303 49.4316L10.4281 56.7596L9.44042 56.3137L14.0602 46.0824L14.4634 46.2645L23.6455 61.3976C23.7502 61.1657 23.9482 60.6556 24.2394 59.8674L27.1785 51.9073L28.2064 52.3715Z" fill="#BC9667"/>
<path d="M18.9484 66.5946L20.2166 67.0739C20.2791 67.5245 20.2969 68.0561 20.2701 68.6688C20.2433 69.2814 20.179 69.8918 20.0771 70.4998C19.9895 71.1117 19.8837 71.6489 19.7597 72.1116C19.4459 73.2827 18.9631 74.3155 18.3113 75.2101C17.6452 76.1008 16.8626 76.8286 15.9633 77.3934C15.0679 77.9438 14.0941 78.3027 13.0418 78.4701C11.9753 78.6337 10.8866 78.5667 9.77578 78.2691C8.66495 77.9714 7.69575 77.487 6.86817 76.8159C6.02634 76.1409 5.3553 75.3413 4.85505 74.417C4.35867 73.4782 4.05187 72.4585 3.93466 71.3578C3.80321 70.2534 3.89438 69.1156 4.20817 67.9446C4.33601 67.4674 4.51495 66.942 4.74499 66.3683C4.97503 65.7947 5.22968 65.2431 5.50893 64.7135C5.77395 64.1802 6.03708 63.7394 6.29833 63.391L7.46555 63.8199L7.43069 63.9501C6.80315 64.3553 6.25273 64.9283 5.77944 65.6693C5.30616 66.4102 4.95329 67.2145 4.72086 68.0819C4.3722 69.3831 4.37041 70.6146 4.71548 71.7763C5.05019 72.9197 5.69029 73.9202 6.63579 74.7779C7.57092 75.6173 8.76479 76.2316 10.2174 76.6209C11.6843 77.0139 13.0325 77.0807 14.262 76.8213C15.4955 76.5475 16.5501 76.0011 17.4259 75.182C18.2875 74.3591 18.8945 73.2899 19.247 71.9742C19.5105 70.9911 19.5979 70.0383 19.5092 69.1157C19.4245 68.1788 19.2259 67.3818 18.9136 66.7247L18.9484 66.5946Z" fill="#BC9667"/>
<path d="M70.5426 168.335L65.5825 183L62.924 182.101C61.2084 181.521 59.9984 180.707 59.294 179.659C58.585 178.625 58.4477 177.466 58.8823 176.181C59.3169 174.896 60.132 174.051 61.3277 173.646C62.5185 173.255 63.9718 173.35 65.6875 173.93L66.8997 174.34L69.0963 167.846L70.5426 168.335ZM63.094 181.598L64.3063 182.008L66.7297 174.843L65.5174 174.433C62.9227 173.556 61.2214 174.311 60.4136 176.699C59.6059 179.087 60.4993 180.72 63.094 181.598Z" fill="#BC9667"/>
<path d="M172.784 111L186.682 120.108L186.395 121.47L170 124.18L170.339 122.576L178.011 121.352L179.065 116.365L172.445 112.603L172.784 111ZM185.525 120.024L179.551 116.629L178.572 121.264L185.497 120.156L185.525 120.024Z" fill="#BC9667"/>
<circle cx="59.8005" cy="14.9504" r="2.30002" fill="#BC9667"/>
</svg>
