<svg width="266" height="38" viewBox="0 0 266 38" fill="none" xmlns="http://www.w3.org/2000/svg">
<path d="M4.68 32V6.8H9.18C12.084 6.8 14.34 7.424 15.948 8.672C17.556 9.896 18.36 11.612 18.36 13.82C18.36 16.028 17.556 17.756 15.948 19.004C14.34 20.228 12.084 20.84 9.18 20.84H7.128V32H4.68ZM9.18 7.664H7.128V19.976H9.18C13.572 19.976 15.768 17.924 15.768 13.82C15.768 9.716 13.572 7.664 9.18 7.664ZM25.2113 32V6.8H27.6593V32H25.2113ZM37.0238 32V6.8H48.0038V8.564L41.7038 7.736C40.5998 7.592 39.8558 7.52 39.4718 7.52V18.5C39.7838 18.5 40.5278 18.464 41.7038 18.392L47.6078 18.032V19.688L41.7038 19.328C40.5278 19.256 39.7838 19.22 39.4718 19.22V31.28C39.9038 31.28 40.6598 31.208 41.7398 31.064L48.1118 30.236V32H37.0238ZM61.4166 32V7.52C61.0566 7.52 60.3126 7.592 59.1846 7.736L52.1286 8.636V6.8H73.1526V8.636L66.0966 7.736C64.9686 7.592 64.2246 7.52 63.8646 7.52V32H61.4166ZM79.0003 6.8H83.8243C86.3683 6.8 88.3363 7.34 89.7283 8.42C91.1443 9.476 91.8523 10.964 91.8523 12.884C91.8523 14.372 91.4083 15.608 90.5203 16.592C89.6563 17.576 88.3963 18.236 86.7403 18.572V18.788C88.3243 19.1 89.6203 19.844 90.6283 21.02C91.6363 22.196 92.3923 23.648 92.8963 25.376C93.3523 26.96 93.7963 28.196 94.2283 29.084C94.6843 29.948 95.1763 30.572 95.7043 30.956C96.2563 31.34 96.9043 31.616 97.6483 31.784V32H96.1723C95.1163 32 94.2403 31.808 93.5443 31.424C92.8723 31.04 92.2963 30.392 91.8163 29.48C91.3363 28.568 90.8803 27.308 90.4483 25.7C89.7523 23.228 88.8283 21.476 87.6763 20.444C86.5243 19.412 85.1203 18.896 83.4643 18.896H83.2483V18.248H83.4643C87.3283 18.248 89.2603 16.472 89.2603 12.92C89.2603 9.416 87.4483 7.664 83.8243 7.664H81.4483V32H79.0003V6.8ZM101.738 6.8H104.186V21.992C104.186 24.896 104.894 27.164 106.31 28.796C107.75 30.404 109.766 31.208 112.358 31.208C113.99 31.208 115.406 30.896 116.606 30.272C117.83 29.624 118.766 28.736 119.414 27.608C120.086 26.48 120.398 25.184 120.35 23.72L119.738 6.8H122.186L121.574 23.72C121.478 26.6 120.614 28.784 118.982 30.272C117.374 31.76 115.07 32.504 112.07 32.504C108.83 32.504 106.298 31.568 104.474 29.696C102.65 27.8 101.738 25.208 101.738 21.92V6.8ZM128.625 31.208L128.841 29.048H129.057C129.993 29.864 131.049 30.5 132.225 30.956C133.401 31.412 134.565 31.64 135.717 31.64C137.349 31.64 138.669 31.196 139.677 30.308C140.685 29.396 141.189 28.184 141.189 26.672C141.189 25.832 140.997 25.052 140.613 24.332C140.253 23.612 139.641 22.88 138.777 22.136C137.937 21.392 136.773 20.588 135.285 19.724C134.253 19.124 133.269 18.5 132.333 17.852C131.397 17.18 130.629 16.412 130.029 15.548C129.429 14.66 129.129 13.604 129.129 12.38C129.129 10.556 129.789 9.092 131.109 7.988C132.429 6.86 134.169 6.296 136.329 6.296C137.289 6.296 138.321 6.404 139.425 6.62C140.529 6.812 141.381 7.064 141.981 7.376L141.801 9.392H141.585C140.217 7.904 138.465 7.16 136.329 7.16C134.793 7.16 133.557 7.556 132.621 8.348C131.685 9.116 131.217 10.16 131.217 11.48C131.217 12.464 131.469 13.316 131.973 14.036C132.501 14.732 133.173 15.368 133.989 15.944C134.805 16.496 135.681 17.036 136.617 17.564C137.697 18.188 138.741 18.848 139.749 19.544C140.781 20.24 141.621 21.08 142.269 22.064C142.941 23.024 143.277 24.236 143.277 25.7C143.277 27.044 142.965 28.232 142.341 29.264C141.717 30.272 140.829 31.064 139.677 31.64C138.549 32.216 137.229 32.504 135.717 32.504C134.757 32.504 133.629 32.384 132.333 32.144C131.037 31.904 129.801 31.592 128.625 31.208ZM166.388 32H147.308V31.28L163.364 7.52C162.98 7.52 162.104 7.568 160.736 7.664L148.244 8.564V6.8H166.244V7.52L150.188 31.28C150.596 31.28 151.472 31.232 152.816 31.136L166.388 30.164V32ZM192.288 28.904L192.072 31.1C191.4 31.388 190.584 31.64 189.624 31.856C188.664 32.072 187.692 32.228 186.708 32.324C185.724 32.444 184.848 32.504 184.08 32.504C182.136 32.504 180.336 32.18 178.68 31.532C177.024 30.86 175.572 29.936 174.324 28.76C173.1 27.584 172.14 26.204 171.444 24.62C170.748 23.012 170.4 21.272 170.4 19.4C170.4 17.528 170.748 15.8 171.444 14.216C172.14 12.608 173.1 11.216 174.324 10.04C175.572 8.864 177.024 7.952 178.68 7.304C180.336 6.632 182.136 6.296 184.08 6.296C184.872 6.296 185.76 6.356 186.744 6.476C187.728 6.596 188.688 6.764 189.624 6.98C190.56 7.172 191.352 7.4 192 7.664L191.82 9.68H191.604C190.716 8.864 189.6 8.24 188.256 7.808C186.912 7.376 185.52 7.16 184.08 7.16C181.92 7.16 180.012 7.676 178.356 8.708C176.724 9.716 175.44 11.144 174.504 12.992C173.592 14.816 173.136 16.952 173.136 19.4C173.136 21.872 173.592 24.02 174.504 25.844C175.44 27.668 176.724 29.096 178.356 30.128C179.988 31.136 181.896 31.64 184.08 31.64C185.712 31.64 187.224 31.376 188.616 30.848C190.032 30.32 191.184 29.672 192.072 28.904H192.288ZM215.501 32H196.421V31.28L212.477 7.52C212.093 7.52 211.217 7.568 209.849 7.664L197.357 8.564V6.8H215.357V7.52L199.301 31.28C199.709 31.28 200.585 31.232 201.929 31.136L215.501 30.164V32ZM218.448 32L228.132 6.8H230.364L240.048 32H237.42L232.956 20.192H224.784L221.076 32H218.448ZM228.384 8.672L225.036 19.328H232.632L228.6 8.672H228.384ZM261.439 32L249.631 19.076L260.575 6.8H263.671L251.827 18.068L264.679 32H261.439ZM245.887 32V6.8H248.335V32H245.887Z" fill="white"/>
</svg>
