<svg width="520" height="101" viewBox="0 0 520 101" fill="none" xmlns="http://www.w3.org/2000/svg">
<path d="M519.947 51.7375H512.933L489.169 25.7289L489.289 25.5931L511.207 1.00665H517.978L494.102 23.7237L519.947 51.7375Z" fill="white"/>
<path d="M487.048 1.00665H481.759V51.7375H487.048V1.00665Z" fill="white"/>
<path d="M451.141 1.1345L451.089 1.00665H446.359L426.862 51.7375H432.55L439.956 28.1537H455.99L464.906 51.7375H470.586L451.141 1.1345ZM440.583 26.0285L447.146 5.14505H447.29L455.195 26.0285H440.583Z" fill="white"/>
<path d="M421.465 47.6591V51.7375H382.958V50.0398L382.994 49.9879L414.846 2.84818C414.159 2.86416 412.673 2.92007 409.993 3.13178L384.827 4.94532V1.00665H421.178V2.70833L421.142 2.75627L389.289 49.896C390.224 49.88 391.882 49.7961 394.142 49.6124L421.465 47.6591Z" fill="white"/>
<path d="M375.124 45.1544L374.661 49.876L374.553 49.9239C370.527 51.6895 363.237 52.744 358.511 52.744C342.82 52.744 330.989 41.4075 330.989 26.372C330.989 11.3365 342.82 0 358.511 0C363.093 0 370.295 1.0306 374.405 2.74825L374.541 2.80414L374.154 7.15821H373.463L373.407 7.10628C369.939 3.98653 364.371 2.12508 358.511 2.12508C345.557 2.12508 336.853 11.8718 336.853 26.372C336.853 40.8722 345.557 50.619 358.511 50.619C364.483 50.619 370.399 48.5937 374.341 45.2023L374.397 45.1544H375.124Z" fill="white"/>
<path d="M323.375 47.6591V51.7375H284.868V50.0398L284.904 49.9879L316.756 2.84818C316.069 2.86416 314.583 2.92007 311.903 3.13178L286.737 4.94532V1.00665H323.087V2.70833L323.052 2.75627L291.199 49.896C292.134 49.88 293.791 49.7961 296.052 49.6124L323.375 47.6591Z" fill="white"/>
<path d="M277.214 38.9548C277.214 47.2036 271.066 52.744 261.915 52.744C258.008 52.744 252.424 51.7254 247.686 50.1476L247.534 50.0957L248.002 45.442H248.689L248.745 45.4939C252.376 48.7016 257.297 50.619 261.915 50.619C268.434 50.619 272.644 46.8042 272.644 40.8962C272.644 35.8631 269.584 32.276 260.952 27.1909C254.856 23.6078 248.557 19.9008 248.557 12.3511C248.557 4.80142 254.417 0 263.137 0C267.076 0 272.073 0.958673 274.513 2.17701L274.637 2.24094L274.25 6.58302H273.547L273.487 6.51909C270.823 3.64701 267.243 2.12508 263.137 2.12508C257.057 2.12508 253.127 5.43256 253.127 10.5536C253.127 16.3696 258.316 19.3616 263.812 22.5332L263.968 22.6212C270.479 26.3521 277.214 30.2108 277.214 38.9548Z" fill="white"/>
<path d="M235.099 1.00665L233.869 35.0083C233.433 46.6125 226.803 52.7441 214.687 52.7441C201.641 52.7441 193.851 44.767 193.851 31.4052V1.00665H199.14V31.549C199.14 43.1213 205.016 49.7562 215.262 49.7562C220.172 49.7562 224.446 48.1304 227.302 45.1824C229.87 42.5301 231.157 39.0108 231.025 35.0083L229.794 1.00665H235.099Z" fill="white"/>
<path d="M9.18747 1.00665H0V51.7375H5.28879V29.4479H9.18747C20.7917 29.4479 27.7222 24.1312 27.7222 15.2273C27.7222 6.32344 20.7917 1.00665 9.18747 1.00665ZM9.18747 27.3228H5.28879V3.13178H9.18747C17.7877 3.13178 22.1458 7.20224 22.1458 15.2273C22.1458 23.2524 17.7877 27.3228 9.18747 27.3228Z" fill="white"/>
<path d="M46.2968 1.00665H41.008V51.7375H46.2968V1.00665Z" fill="white"/>
<path d="M87.1449 47.7874V51.738H64.5996V1.00713H86.9292V4.95775L74.1186 3.27606C72.1773 3.01641 70.7233 2.86864 69.8884 2.84867V24.3753C70.5795 24.3633 71.9136 24.2954 74.1346 24.1596L86.1382 23.4286V27.1595L74.1346 26.4285C71.9136 26.2927 70.5795 26.2288 69.8884 26.2168V49.9005C70.7672 49.8805 72.2132 49.7367 74.1905 49.4731L87.1449 47.7874Z" fill="white"/>
<path d="M137.157 1.00665V5.10107L122.84 3.27558C120.847 3.01593 119.393 2.87215 118.606 2.84818V51.7375H113.318V2.84818C112.535 2.87215 111.081 3.01593 109.087 3.27558L94.7668 5.10107V1.00665H137.157Z" fill="white"/>
<path d="M186.082 50.9466V51.7375H182.934C176.643 51.7375 174.035 48.8814 171.31 39.0108C168.766 29.8393 164.396 25.5652 157.553 25.5652H156.922V23.8715H157.553C165.207 23.8715 168.93 20.4562 168.93 13.4298C168.93 6.40333 165.442 3.13178 158.272 3.13178H153.726V51.7375H148.438V1.00665H158.272C168.59 1.00665 174.506 5.50853 174.506 13.3578C174.506 19.4535 170.883 23.5399 164.296 24.8821V24.99C170.176 26.2562 174.422 30.838 176.583 38.2519C179.339 47.9027 181.692 49.9559 185.926 50.9106L186.082 50.9466Z" fill="white"/>
<path d="M54.1866 89.8067C54.1333 88.8622 53.9678 87.9657 53.6957 87.1386C53.3542 86.0714 52.8366 85.1322 52.1642 84.3424C51.4865 83.5527 50.638 82.9283 49.6348 82.4801C48.6476 82.0372 47.4897 81.8077 46.193 81.8077C45.003 81.8077 43.845 82.0425 42.7564 82.5015C41.6892 82.9604 40.7287 83.6221 39.9123 84.4599C39.1065 85.2977 38.4555 86.3062 37.9645 87.4695C37.6017 88.3446 37.3722 89.2998 37.2868 90.3244C37.2708 90.4738 37.2601 90.6232 37.2548 90.7779C37.2495 90.9487 37.2441 91.1195 37.2441 91.2955C37.2441 91.5944 37.2548 91.8932 37.2762 92.1814C37.2762 92.192 37.2762 92.208 37.2762 92.2187C37.3509 93.2486 37.5536 94.2091 37.8845 95.0736C38.3274 96.1675 38.925 97.1227 39.6668 97.9125C40.4085 98.6862 41.273 99.2839 42.2388 99.6947C43.226 100.106 44.2826 100.314 45.3872 100.314C46.7586 100.314 48.0073 100.058 49.0959 99.5507C50.1951 99.0384 51.1343 98.334 51.8867 97.4695C52.6444 96.5997 53.2261 95.5592 53.621 94.3799C53.8237 93.7662 53.9785 93.1205 54.0692 92.4482C54.1653 91.8399 54.208 91.2102 54.208 90.5645C54.208 90.3083 54.2026 90.0575 54.1813 89.8067H54.1866ZM50.2538 97.032C49.2559 98.2753 47.8365 98.905 46.0222 98.905C45.1684 98.905 44.3466 98.7236 43.5729 98.3607C42.8151 97.9978 42.1428 97.4589 41.5718 96.7652C41.0008 96.0448 40.5312 95.159 40.1844 94.1291C39.8482 93.0885 39.6775 91.8719 39.6775 90.5165C39.6775 89.2518 39.8429 88.1525 40.1577 87.2454C40.2164 87.0693 40.2858 86.8985 40.3551 86.7331C40.6433 86.0393 41.0062 85.4471 41.4224 84.9828C41.6892 84.684 41.9773 84.4225 42.2868 84.1983C42.5963 83.9796 42.9272 83.7928 43.2741 83.6488C43.9784 83.366 44.7255 83.2218 45.4886 83.2218C46.4384 83.2218 47.3029 83.414 48.0606 83.7929C48.8344 84.1717 49.4961 84.7213 50.035 85.4364C50.59 86.1301 51.0222 86.9945 51.3264 87.9977C51.6306 88.9849 51.78 90.1162 51.78 91.3436C51.78 93.8676 51.2677 95.778 50.2538 97.032Z" fill="white"/>
<path d="M32.8793 82.1009L32.8634 82.2503C32.826 82.5865 32.7353 82.9173 32.5805 83.2215C32.4418 83.531 32.2817 83.7605 32.1056 83.8992L32.0629 83.9312H32.0095C31.2785 83.8618 30.4194 83.7818 29.4322 83.6857C28.5357 83.579 27.6499 83.4883 26.7267 83.4082V99.6037L26.6573 99.641C26.3852 99.7905 26.0703 99.8918 25.6861 99.9505C25.3446 100.015 24.9764 100.047 24.5976 100.047H24.4642V83.4082C24.0159 83.4509 23.541 83.5043 23.0287 83.563C22.4577 83.611 21.8974 83.6591 21.3478 83.7071C20.7928 83.7551 20.2645 83.8032 19.7629 83.8512C19.272 83.8885 18.8558 83.9099 18.5143 83.9259L18.3649 83.9365L18.3755 83.7818C18.4129 83.4083 18.4876 83.0827 18.605 82.8159C18.7437 82.5224 18.9091 82.2983 19.1066 82.1329L19.1439 82.1009H32.8793Z" fill="white"/>
<path d="M12.8791 94.6307C12.8791 95.3777 12.719 96.0982 12.4041 96.7812C12.0893 97.4589 11.6304 98.0726 11.0327 98.6009C10.4404 99.1131 9.71468 99.5293 8.87156 99.8442C8.05512 100.138 7.11595 100.287 6.07538 100.287C5.03482 100.287 4.18637 100.154 3.44997 99.8922C2.71357 99.6307 2.08391 99.2999 1.58764 98.8997C1.08603 98.4834 0.696465 98.0192 0.429654 97.5176C0.178852 97.016 0.0454736 96.5197 0.0241287 96.0448V96.0021L0.0508033 95.9647C0.226899 95.7033 0.5097 95.4631 0.899244 95.2444C1.28345 95.0256 1.67301 94.9028 2.05189 94.8868H2.17461L2.19063 95.0095C2.23866 95.4471 2.36671 95.9007 2.56948 96.3543C2.77226 96.7865 3.06575 97.1867 3.43929 97.5496C3.83951 97.9018 4.32511 98.1953 4.88542 98.4247C5.44572 98.6435 6.13407 98.7556 6.92917 98.7556C8.07645 98.7556 8.99962 98.4621 9.66665 97.8858C10.3283 97.3041 10.6645 96.5304 10.6645 95.5805C10.6645 94.6307 10.4297 93.9157 9.96548 93.3287C9.50122 92.7364 8.63144 92.2774 7.38276 91.9572L5.09354 91.3703C4.52256 91.2315 3.96226 91.0608 3.4233 90.8633C2.88968 90.6606 2.42009 90.399 2.02521 90.0842C1.61966 89.748 1.29946 89.3371 1.06467 88.8675C0.952605 88.6274 0.872577 88.3606 0.813879 88.0724C0.813879 88.0618 0.813874 88.0565 0.808537 88.0458C0.760511 87.7577 0.733822 87.4428 0.733822 87.1066V87.0159C0.749831 86.3649 0.915255 85.7299 1.23543 85.1216C1.56627 84.4919 2.03053 83.9262 2.60684 83.4513C3.19916 82.9551 3.89286 82.5548 4.66661 82.2613C5.46171 81.9625 6.32086 81.8077 7.22268 81.8077C7.31874 81.8077 7.40943 81.8077 7.50014 81.8131H7.55353C8.11383 81.8024 8.66346 81.8771 9.18641 82.0479C9.31448 82.0799 9.43721 82.1172 9.55461 82.1599C10.195 82.3894 10.7232 82.6775 11.1288 83.0084C11.529 83.3446 11.8278 83.7234 12.0146 84.129C12.212 84.5078 12.3348 84.8601 12.3668 85.1642V85.2069L12.3561 85.2389C12.2334 85.4898 12.0093 85.7139 11.6731 85.9273C11.3369 86.1194 10.9634 86.2421 10.5471 86.2902L10.4244 86.3062L10.403 86.1835C10.339 85.8313 10.2163 85.4951 10.0509 85.1749C9.87478 84.8281 9.62396 84.5239 9.30379 84.2677C8.98895 83.9849 8.59409 83.7555 8.12451 83.5794C7.64958 83.4086 7.08393 83.3179 6.44358 83.3179C5.37634 83.3179 4.51187 83.6007 3.87686 84.161C3.23118 84.7106 2.92169 85.4204 2.92169 86.3276C2.92169 86.8452 3.00173 87.2774 3.15115 87.6135C3.3059 87.9337 3.51933 88.2059 3.80215 88.4407C4.07963 88.6595 4.41049 88.8409 4.78403 88.9796C5.21093 89.1291 5.64849 89.2625 6.08072 89.3638L8.22589 89.8975C9.12238 90.1269 9.87477 90.4097 10.4724 90.7352C11.0861 91.0661 11.5717 91.4396 11.9239 91.8398C12.2761 92.2401 12.5215 92.6936 12.655 93.1846C12.8044 93.6435 12.8791 94.1291 12.8791 94.6307Z" fill="white"/>
<path d="M228.527 82.1438L228.495 82.0531H228.404C228.068 82.0531 227.742 82.0851 227.406 82.1545C227.091 82.2132 226.776 82.3199 226.478 82.4587L226.424 82.48L226.408 82.528C226.008 83.5419 225.554 84.6732 225.053 85.9165L224.85 86.4235C224.279 87.8536 223.687 89.337 223.073 90.8792C222.47 92.4053 221.872 93.9475 221.269 95.5057C220.853 96.5783 220.448 97.6082 220.063 98.59L219.508 100.015L219.663 100.047C219.749 100.063 219.845 100.068 219.962 100.068C220.095 100.09 220.229 100.095 220.373 100.095C220.613 100.095 220.859 100.068 221.093 100.02C221.35 99.9881 221.563 99.9241 221.723 99.8334L221.771 99.8067L221.787 99.7533C222.23 98.1898 222.726 96.5516 223.265 94.8813H230.869L232.758 100.031L232.833 100.047C232.924 100.063 232.998 100.068 233.078 100.068H233.324C233.692 100.068 234.012 100.036 234.268 99.9721C234.551 99.9188 234.759 99.8547 234.919 99.764L235.021 99.7106L228.527 82.1438ZM223.745 93.4459C224.29 91.8664 224.85 90.2762 225.41 88.7127C225.896 87.3893 226.467 85.8578 227.038 84.369L230.357 93.4459H223.745Z" fill="white"/>
<path d="M212.939 82.0531V99.6039L212.87 99.6413C212.598 99.7907 212.278 99.8921 211.899 99.9508C211.557 100.015 211.194 100.047 210.81 100.047H210.677V82.544L210.746 82.5067C211.312 82.2079 212.006 82.0531 212.806 82.0531H212.939Z" fill="white"/>
<path d="M202.459 90.7193V97.5816L202.427 97.6189C202.246 97.8271 201.979 98.0832 201.632 98.3821C201.28 98.6916 200.81 98.9903 200.239 99.2785C199.69 99.5507 199.017 99.7962 198.243 99.9936C197.47 100.207 196.579 100.314 195.602 100.314C194.529 100.314 193.473 100.132 192.47 99.7748C191.472 99.4013 190.565 98.8303 189.764 98.0885C188.985 97.3201 188.355 96.3703 187.886 95.2657C187.427 94.1291 187.192 92.795 187.192 91.2955C187.192 90.0095 187.427 88.7715 187.886 87.6189C188.361 86.4663 189.017 85.4524 189.834 84.6039C190.666 83.7394 191.653 83.0511 192.774 82.5495C193.894 82.0585 195.122 81.8077 196.429 81.8077C197.528 81.8077 198.457 81.9518 199.183 82.2346C199.919 82.5228 200.49 82.8537 200.928 83.2592C201.381 83.6434 201.712 84.0543 201.909 84.4705C202.107 84.8654 202.235 85.2069 202.288 85.479V85.5218L202.272 85.5645C202.144 85.8046 201.909 86.0447 201.573 86.2688C201.237 86.4769 200.853 86.6157 200.421 86.6797L200.298 86.6957L200.271 86.5783C200.175 86.1835 200.015 85.7832 199.796 85.399C199.577 85.0041 199.268 84.6573 198.884 84.3638C198.5 84.0436 198.019 83.7875 197.459 83.606C196.899 83.4139 196.216 83.3179 195.431 83.3179C194.647 83.3179 193.958 83.462 193.265 83.7448C192.576 84.0169 191.941 84.4385 191.392 85.0095C190.858 85.5698 190.415 86.3115 190.079 87.2026C189.759 88.0938 189.599 89.1718 189.599 90.3938C189.599 91.8612 189.796 93.1366 190.18 94.1985C190.575 95.2444 191.098 96.1195 191.733 96.8025C192.374 97.4642 193.121 97.9605 193.948 98.2806C194.77 98.5955 195.629 98.7556 196.504 98.7556C197.518 98.7556 198.323 98.6542 198.894 98.4514C199.455 98.2273 199.882 98.0352 200.191 97.8645V92.0426C199.455 92.0746 198.702 92.1066 197.923 92.1333C197.091 92.1493 196.333 92.1547 195.65 92.1547H195.495L195.517 92.0052C195.559 91.7011 195.639 91.4396 195.757 91.2101C195.895 90.954 196.05 90.7833 196.221 90.6872L196.253 90.6712L202.459 90.7193Z" fill="white"/>
<path d="M180.02 87.1386C179.673 86.066 179.156 85.1269 178.483 84.3424C177.806 83.5527 176.957 82.9283 175.954 82.4801C174.972 82.0372 173.809 81.8077 172.512 81.8077C171.322 81.8077 170.164 82.0426 169.076 82.5015C168.008 82.9604 167.048 83.6221 166.231 84.4599C165.426 85.2977 164.775 86.3062 164.284 87.4695C163.809 88.6167 163.569 89.9028 163.569 91.2955C163.569 92.6883 163.782 93.9583 164.209 95.0736C164.652 96.1621 165.25 97.1174 165.991 97.9125C166.733 98.6862 167.597 99.2839 168.563 99.6947C169.556 100.106 170.612 100.314 171.712 100.314C173.083 100.314 174.332 100.058 175.42 99.5507C176.52 99.0384 177.459 98.3393 178.217 97.4695C178.969 96.5997 179.551 95.5645 179.945 94.3799C180.34 93.2006 180.538 91.9145 180.538 90.5645C180.538 89.3372 180.362 88.1845 180.02 87.1386ZM172.341 98.905C171.488 98.905 170.666 98.7236 169.892 98.3607C169.14 97.9978 168.467 97.4589 167.896 96.7652C167.315 96.0341 166.85 95.1483 166.509 94.1291C166.173 93.0885 166.002 91.8719 166.002 90.5165C166.002 89.2465 166.162 88.1472 166.482 87.2454C166.802 86.3169 167.229 85.5538 167.747 84.9828C168.275 84.3852 168.9 83.9369 169.593 83.6488C170.303 83.366 171.045 83.2218 171.808 83.2218C172.763 83.2218 173.627 83.414 174.38 83.7929C175.148 84.1664 175.815 84.7213 176.354 85.4364C176.909 86.1301 177.341 86.9945 177.646 87.9977C177.95 88.9849 178.105 90.1162 178.105 91.3436C178.105 93.8623 177.592 95.7726 176.573 97.032C175.58 98.2753 174.156 98.905 172.341 98.905Z" fill="white"/>
<path d="M158.686 98.2111L158.675 98.3659C158.643 98.7501 158.547 99.1023 158.392 99.4118C158.238 99.7106 158.056 99.9187 157.853 100.031L157.821 100.047H147.549V82.544L147.618 82.5067C148.195 82.2025 148.872 82.0531 149.678 82.0531H149.812V98.7021C151.156 98.6541 152.448 98.59 153.76 98.51C155.18 98.43 156.77 98.3339 158.531 98.2218L158.686 98.2111Z" fill="white"/>
<path d="M139.353 87.1386C139.017 86.082 138.499 85.1429 137.822 84.3424C137.144 83.5527 136.29 82.923 135.287 82.4801C134.31 82.0372 133.152 81.8077 131.85 81.8077C130.655 81.8077 129.497 82.0425 128.414 82.5015C127.341 82.9604 126.386 83.6221 125.57 84.4599C124.764 85.2977 124.108 86.3062 123.622 87.4695C123.142 88.6114 122.902 89.8975 122.902 91.2955C122.902 92.6936 123.12 93.9476 123.547 95.0736C123.99 96.1728 124.588 97.128 125.324 97.9125C126.066 98.6862 126.936 99.2892 127.902 99.6947C128.889 100.106 129.945 100.314 131.045 100.314C132.421 100.314 133.67 100.058 134.759 99.5507C135.853 99.0384 136.792 98.3393 137.549 97.4695C138.307 96.5944 138.889 95.5592 139.284 94.3799C139.673 93.2113 139.871 91.9252 139.871 90.5645C139.871 89.3372 139.695 88.1845 139.353 87.1386ZM131.68 98.905C130.826 98.905 130.004 98.7236 129.23 98.3607C128.467 97.9925 127.795 97.4589 127.229 96.7652C126.658 96.0501 126.189 95.1643 125.842 94.1291C125.506 93.0885 125.335 91.8719 125.335 90.5165C125.335 89.2571 125.495 88.1579 125.821 87.2454C126.13 86.3275 126.557 85.5698 127.08 84.9828C127.624 84.3745 128.227 83.9369 128.926 83.6488C129.636 83.366 130.383 83.2218 131.146 83.2218C132.096 83.2218 132.96 83.414 133.713 83.7929C134.492 84.1717 135.154 84.7267 135.687 85.4364C136.247 86.1301 136.68 86.9945 136.979 87.9977C137.283 88.9849 137.437 90.1162 137.437 91.3436C137.437 93.8676 136.925 95.7833 135.906 97.032C134.919 98.2753 133.494 98.905 131.68 98.905Z" fill="white"/>
<path d="M79.614 99.6199L79.5393 99.6626C79.3045 99.7961 78.995 99.8921 78.5895 99.9508C78.216 100.015 77.8371 100.047 77.4742 100.047H77.3568L75.6759 85.4042C74.9288 87.2719 74.1818 89.1289 73.4347 90.9806C72.6396 92.987 71.8765 94.9347 71.1455 96.8184L71.1134 96.8665C71.0174 96.9625 70.8893 97.0425 70.7346 97.1119C70.5905 97.1599 70.4464 97.2026 70.2863 97.2507L70.233 97.2667C70.0782 97.3147 69.9074 97.3521 69.7047 97.3894C69.5126 97.4054 69.3471 97.416 69.1977 97.416H69.107L63.9949 85.0787C63.8989 86.1673 63.8028 87.2772 63.7068 88.4085L63.4133 92.2773C63.3332 93.542 63.2479 94.796 63.1678 96.0286C63.1038 97.2453 63.0451 98.4086 62.997 99.5292V99.6039L62.933 99.6413C62.6769 99.7907 62.3567 99.8921 61.9565 99.9508C61.599 100.015 61.2308 100.047 60.8679 100.047H60.7185L60.7345 99.8974C61.0707 97.1226 61.4389 94.2303 61.8338 91.3008C62.2286 88.3285 62.6342 85.4149 63.0238 82.6348L63.0344 82.5707L63.0878 82.5387C63.3172 82.3999 63.616 82.2985 64.0269 82.2025C64.4058 82.1064 64.7687 82.0531 65.1049 82.0531H65.1956L65.2276 82.1385L70.4144 94.9507C71.1988 92.9763 72.0046 90.9699 72.821 88.9314C73.6908 86.8076 74.55 84.6571 75.3771 82.528L75.3984 82.48L75.4411 82.4587C75.7239 82.3199 76.0388 82.2185 76.3803 82.1545C76.7432 82.0851 77.0954 82.0531 77.4262 82.0531H77.5436L77.5596 82.1705L79.614 99.6199Z" fill="white"/>
<path d="M118.536 82.1009L118.52 82.2503C118.488 82.5865 118.392 82.9173 118.232 83.2268C118.093 83.5363 117.939 83.7605 117.757 83.8992L117.72 83.9312H117.667C116.935 83.8618 116.076 83.7818 115.089 83.6857C114.193 83.579 113.307 83.4883 112.384 83.4082V99.6037L112.314 99.641C112.042 99.7905 111.722 99.8918 111.343 99.9505C111.002 100.015 110.639 100.047 110.255 100.047H110.121V83.4082C109.673 83.4509 109.198 83.5043 108.686 83.563L106.999 83.7071C106.45 83.7551 105.922 83.8032 105.42 83.8512C104.929 83.8885 104.513 83.9099 104.171 83.9259L104.022 83.9365L104.032 83.7818C104.064 83.4136 104.145 83.0881 104.262 82.8159C104.401 82.5224 104.561 82.2983 104.764 82.1329L104.801 82.1009H118.536Z" fill="white"/>
<path d="M94.3949 82.1438L94.3629 82.0531H94.2721C93.9413 82.0531 93.6051 82.0851 93.2689 82.1545C92.9434 82.2185 92.6339 82.3199 92.3404 82.4587L92.2924 82.48L92.2764 82.528C91.8175 83.6806 91.2999 84.9773 90.7182 86.4235C90.1472 87.8536 89.5549 89.337 88.9359 90.8792C88.3383 92.4053 87.7353 93.9475 87.1376 95.5057L86.7427 96.5036C86.2891 97.6775 85.8516 98.7982 85.43 99.8654L85.3713 100.015L85.5261 100.047C85.6168 100.063 85.7182 100.068 85.8249 100.068C85.9583 100.084 86.0971 100.095 86.2358 100.095C86.4813 100.095 86.7267 100.068 86.9562 100.02C87.2177 99.9881 87.4311 99.9241 87.5912 99.8334L87.6392 99.8067L87.6552 99.7533C88.0875 98.1898 88.5891 96.5516 89.1334 94.8813H96.7375L98.6052 99.9614L98.6265 100.031L98.7012 100.047C98.7812 100.063 98.8666 100.068 98.9467 100.068H99.1921C99.555 100.068 99.8752 100.036 100.142 99.9721C100.419 99.9188 100.628 99.8547 100.788 99.764L100.889 99.7106L94.3949 82.1438ZM96.2199 93.4459H89.6136C90.1579 91.8611 90.7182 90.2709 91.2785 88.7127C91.8015 87.2773 92.3511 85.8205 92.9007 84.3744L96.2199 93.4459Z" fill="white"/>
<path d="M513.506 82.1433L513.474 82.0526H513.383C513.052 82.0526 512.711 82.0846 512.38 82.154C512.065 82.2127 511.75 82.3195 511.451 82.4582L511.398 82.4795L511.382 82.5275C510.891 83.7655 510.368 85.0782 509.824 86.423C509.258 87.8531 508.666 89.3365 508.047 90.8787C507.449 92.4049 506.846 93.9471 506.249 95.5052L505.859 96.5031C505.4 97.6771 504.963 98.7977 504.541 99.8649L504.482 100.014L504.637 100.046C504.722 100.062 504.824 100.068 504.936 100.068C505.069 100.084 505.208 100.094 505.347 100.094C505.592 100.094 505.838 100.068 506.067 100.02C506.323 99.9876 506.531 99.9236 506.702 99.8329L506.75 99.8062L506.766 99.7528C507.198 98.1947 507.695 96.5564 508.244 94.8809H515.848L517.716 99.961L517.737 100.03L517.812 100.046C517.898 100.062 517.972 100.068 518.058 100.068H518.298C518.666 100.068 518.986 100.036 519.253 99.9716C519.52 99.9183 519.739 99.8489 519.899 99.7635L520 99.7102L513.506 82.1433ZM508.725 93.4454C509.269 91.8606 509.829 90.2704 510.395 88.7122C510.918 87.2768 511.462 85.82 512.012 84.3739L515.331 93.4454H508.725Z" fill="white"/>
<path d="M497.913 82.0531V99.6039L497.844 99.6413C497.582 99.7907 497.257 99.8921 496.878 99.9508C496.531 100.015 496.163 100.047 495.784 100.047H495.65V82.544L495.72 82.5067C496.285 82.2079 496.979 82.0531 497.78 82.0531H497.913Z" fill="white"/>
<path d="M487.433 90.7192V97.5763L487.401 97.6136C487.241 97.811 486.98 98.0619 486.606 98.382C486.254 98.6915 485.784 98.9903 485.213 99.2785C484.664 99.5506 483.991 99.7961 483.218 99.9936C482.444 100.207 481.553 100.314 480.581 100.314C479.509 100.314 478.452 100.132 477.444 99.7748C476.441 99.3959 475.533 98.8249 474.744 98.0832C473.965 97.3254 473.33 96.3756 472.86 95.2657C472.401 94.1291 472.166 92.795 472.166 91.2955C472.166 90.0095 472.401 88.7715 472.86 87.6189C473.335 86.4662 473.991 85.4523 474.808 84.6039C475.645 83.7394 476.633 83.051 477.748 82.5494C478.869 82.0585 480.101 81.8077 481.409 81.8077C482.508 81.8077 483.431 81.9518 484.157 82.2346C484.893 82.5174 485.48 82.8643 485.907 83.2592C486.35 83.6381 486.681 84.0436 486.884 84.4651C487.086 84.876 487.209 85.2069 487.262 85.479V85.5218L487.246 85.5591C487.124 85.8045 486.889 86.0446 486.547 86.2688C486.211 86.4769 485.822 86.6156 485.395 86.6797L485.272 86.6957L485.245 86.5783C485.149 86.1834 484.989 85.7832 484.77 85.399C484.557 85.0148 484.253 84.6679 483.858 84.3638C483.474 84.0436 482.999 83.7928 482.438 83.606C481.867 83.4139 481.2 83.3179 480.411 83.3179C479.664 83.3179 478.933 83.4619 478.239 83.7448C477.545 84.0169 476.915 84.4438 476.366 85.0094C475.827 85.5804 475.389 86.3221 475.053 87.2026C474.738 88.0831 474.578 89.1611 474.578 90.3937C474.578 91.8719 474.77 93.1472 475.154 94.1984C475.549 95.2443 476.072 96.1194 476.707 96.8025C477.353 97.4641 478.1 97.9604 478.922 98.2806C479.744 98.5954 480.603 98.7555 481.478 98.7555C482.492 98.7555 483.298 98.6542 483.874 98.4514C484.44 98.2273 484.856 98.0352 485.171 97.8644V92.0426C484.434 92.0746 483.676 92.1066 482.897 92.1333C482.065 92.1493 481.312 92.1546 480.629 92.1546H480.48L480.496 92.0052C480.528 91.7277 480.608 91.4609 480.731 91.2101C480.87 90.954 481.024 90.7832 481.195 90.6872L481.227 90.6712L487.433 90.7192Z" fill="white"/>
<path d="M464.995 87.1386C464.648 86.066 464.13 85.1269 463.458 84.3424C462.791 83.558 461.937 82.9283 460.928 82.4801C459.947 82.0372 458.789 81.8077 457.492 81.8077C456.297 81.8077 455.139 82.0425 454.05 82.5015C452.983 82.9657 452.027 83.6221 451.211 84.4599C450.4 85.303 449.744 86.3168 449.258 87.4695C448.783 88.6167 448.543 89.9028 448.543 91.2955C448.543 92.6883 448.762 93.9636 449.189 95.0736C449.632 96.1728 450.229 97.128 450.966 97.9125C451.707 98.6862 452.577 99.2892 453.543 99.6947C454.53 100.106 455.587 100.314 456.686 100.314C458.063 100.314 459.311 100.058 460.4 99.5507C461.494 99.0384 462.433 98.334 463.191 97.4695C463.943 96.5997 464.525 95.5645 464.92 94.3799C465.315 93.2166 465.512 91.9306 465.512 90.5645C465.512 89.3372 465.336 88.1845 464.995 87.1386ZM457.321 98.905C456.457 98.905 455.656 98.7289 454.872 98.3607C454.114 97.9978 453.442 97.4589 452.871 96.7652C452.3 96.0448 451.83 95.159 451.483 94.1291C451.147 93.0885 450.976 91.8719 450.976 90.5165C450.976 89.2465 451.136 88.1472 451.457 87.2454C451.771 86.3275 452.198 85.5645 452.721 84.9828C453.266 84.3745 453.869 83.9369 454.568 83.6488C455.277 83.366 456.019 83.2218 456.782 83.2218C457.737 83.2218 458.602 83.414 459.354 83.7929C460.123 84.1664 460.79 84.7213 461.329 85.4364C461.884 86.1301 462.316 86.9945 462.62 87.9977C462.924 88.9849 463.079 90.1162 463.079 91.3436C463.079 93.8676 462.567 95.7833 461.547 97.032C460.555 98.2753 459.13 98.905 457.321 98.905Z" fill="white"/>
<path d="M443.66 98.2111L443.65 98.3659C443.612 98.7715 443.522 99.113 443.367 99.4171C443.207 99.7213 443.031 99.9241 442.828 100.031L442.796 100.047H432.524V82.544L432.593 82.5067C433.164 82.2079 433.858 82.0531 434.658 82.0531H434.792V98.7021C436.131 98.6541 437.46 98.59 438.735 98.51C440.154 98.43 441.739 98.3339 443.506 98.2218L443.66 98.2111Z" fill="white"/>
<path d="M424.332 87.1386C423.985 86.066 423.468 85.1269 422.795 84.3424C422.118 83.5527 421.264 82.923 420.261 82.4801C419.284 82.0372 418.126 81.8077 416.824 81.8077C415.634 81.8077 414.476 82.0425 413.388 82.5015C412.32 82.9604 411.36 83.6221 410.543 84.4599C409.738 85.2977 409.087 86.3062 408.596 87.4695C408.121 88.6167 407.881 89.9028 407.881 91.2955C407.881 92.6883 408.094 93.9583 408.521 95.0736C408.964 96.1675 409.562 97.1174 410.303 97.9125C411.045 98.6862 411.91 99.2839 412.875 99.6947C413.868 100.106 414.925 100.314 416.024 100.314C417.395 100.314 418.644 100.058 419.732 99.5507C420.832 99.0384 421.771 98.3393 422.529 97.4695C423.281 96.6051 423.863 95.5645 424.258 94.3799C424.652 93.2006 424.85 91.9145 424.85 90.5645C424.85 89.3372 424.674 88.1845 424.332 87.1386ZM416.654 98.905C415.8 98.905 414.978 98.7236 414.204 98.3607C413.452 97.9978 412.779 97.4589 412.208 96.7652C411.632 96.0394 411.163 95.1537 410.816 94.1291C410.485 93.0832 410.314 91.8665 410.314 90.5165C410.314 89.2465 410.474 88.1472 410.794 87.2454C411.114 86.3169 411.541 85.5538 412.059 84.9828C412.587 84.3852 413.212 83.9369 413.905 83.6488C414.61 83.366 415.351 83.2218 416.12 83.2218C417.075 83.2218 417.94 83.414 418.692 83.7929C419.466 84.1717 420.127 84.7213 420.661 85.4364C421.216 86.1301 421.654 86.9892 421.958 87.9977C422.262 88.9903 422.411 90.0842 422.411 91.3435C422.411 93.8676 421.899 95.7833 420.88 97.032C419.893 98.2753 418.468 98.905 416.654 98.905Z" fill="white"/>
<path d="M403.51 82.1009L403.494 82.2503C403.462 82.5865 403.366 82.912 403.212 83.2215C403.068 83.5363 402.913 83.7605 402.742 83.8992L402.699 83.9312H402.646C401.915 83.8618 401.056 83.7818 400.063 83.6857C399.167 83.579 398.281 83.4883 397.358 83.4082V99.6037L397.288 99.641C397.016 99.7958 396.696 99.8918 396.323 99.9505C395.976 100.015 395.608 100.047 395.229 100.047H395.095V83.4082C394.652 83.4509 394.172 83.5043 393.66 83.563C393.089 83.611 392.528 83.6591 391.979 83.7071C391.424 83.7551 390.896 83.8032 390.394 83.8512C389.908 83.8885 389.487 83.9099 389.145 83.9259L388.996 83.9365L389.007 83.7818C389.039 83.4136 389.119 83.0881 389.236 82.8159C389.38 82.5224 389.54 82.2983 389.738 82.1329L389.775 82.1009H403.51Z" fill="white"/>
<path d="M367.106 99.8854L367.729 81.8063H368.028L380.558 97.2014H380.707L380.159 82.1608H381.853L381.23 100.24H380.931L368.401 84.8448H368.252L368.8 99.8854H367.106Z" fill="white"/>
<path d="M354.168 82.1438L354.136 82.0531H354.045C353.709 82.0531 353.383 82.0851 353.047 82.1545C352.732 82.2132 352.417 82.3199 352.118 82.4587L352.065 82.48L352.049 82.528C351.649 83.5419 351.195 84.6732 350.694 85.9165L350.491 86.4235C349.92 87.8536 349.328 89.337 348.714 90.8792C348.111 92.4053 347.513 93.9475 346.91 95.5057C346.494 96.5783 346.094 97.6029 345.71 98.5847L345.149 100.015L345.304 100.047C345.389 100.063 345.491 100.074 345.603 100.068C345.742 100.09 345.875 100.095 346.009 100.095C346.254 100.095 346.494 100.073 346.734 100.02C346.99 99.9881 347.204 99.9241 347.364 99.8334L347.412 99.8067L347.428 99.7533C347.839 98.2752 348.324 96.6796 348.906 94.8813H356.51L358.378 99.9614L358.399 100.031L358.474 100.047C358.554 100.063 358.639 100.068 358.719 100.068H358.965C359.333 100.068 359.653 100.036 359.915 99.9721C360.192 99.9188 360.406 99.8547 360.56 99.764L360.662 99.7106L354.168 82.1438ZM349.386 93.4459C349.936 91.8611 350.496 90.2709 351.051 88.7127C351.542 87.384 352.113 85.8472 352.679 84.369L355.998 93.4459H349.386Z" fill="white"/>
<path d="M339.915 98.2111L339.904 98.3659C339.872 98.7501 339.776 99.1023 339.622 99.4118C339.456 99.7213 339.28 99.9241 339.083 100.031L339.051 100.047H328.778V82.544L328.848 82.5067C329.413 82.2079 330.107 82.0531 330.907 82.0531H331.041V98.7021C332.386 98.6541 333.677 98.59 334.99 98.51C336.404 98.43 337.994 98.3339 339.76 98.2218L339.915 98.2111Z" fill="white"/>
<path d="M321.137 85.0681C320.923 84.4598 320.56 83.8995 320.059 83.4086C319.573 82.923 318.917 82.5387 318.111 82.2613C317.3 81.9624 316.291 81.8077 315.117 81.8077C314.013 81.8077 312.962 81.9091 312.001 82.1066C311.025 82.3093 310.197 82.5334 309.477 82.7949L309.386 82.8269V100.047H309.52C309.899 100.047 310.267 100.015 310.614 99.9508C310.987 99.8921 311.313 99.7908 311.579 99.6414L311.649 99.604V93.2326C311.884 93.2646 312.151 93.2966 312.476 93.3233C312.839 93.3607 313.234 93.3766 313.682 93.3766C314.76 93.3766 315.784 93.2379 316.718 92.9551C317.668 92.6562 318.474 92.24 319.168 91.6904C319.883 91.1461 320.443 90.4684 320.838 89.6786C321.254 88.8835 321.462 87.9657 321.462 86.9572C321.462 86.3115 321.35 85.6765 321.137 85.0681ZM314.557 91.9893C313.874 91.9893 313.276 91.9252 312.791 91.7971C312.38 91.6851 311.996 91.541 311.649 91.3596V83.4886C311.98 83.4246 312.364 83.3606 312.844 83.2965C313.324 83.2272 313.842 83.1951 314.434 83.1951C315.245 83.1951 315.939 83.3179 316.505 83.5527C317.081 83.7874 317.567 84.1183 317.946 84.5398C318.319 84.9454 318.591 85.431 318.762 85.9807C318.938 86.5303 319.029 87.1279 319.029 87.7629C319.029 89.129 318.623 90.1856 317.828 90.906C317.033 91.6264 315.928 91.9893 314.557 91.9893Z" fill="white"/>
<path d="M301.436 99.6199L301.361 99.6626C301.126 99.7961 300.811 99.8921 300.411 99.9508C300.027 100.015 299.664 100.047 299.296 100.047H299.178L297.492 85.4042C296.75 87.2719 296.003 89.1289 295.256 90.9806C294.461 92.987 293.698 94.9347 292.967 96.8184L292.94 96.8665C292.85 96.9572 292.716 97.0425 292.556 97.1119C292.417 97.1599 292.284 97.1973 292.14 97.24L292.054 97.2667C291.9 97.3147 291.729 97.3521 291.526 97.3894C291.329 97.4054 291.169 97.416 291.019 97.416H290.929L285.816 85.0787C285.72 86.1673 285.624 87.2826 285.528 88.4085C285.443 89.5184 285.357 90.6231 285.277 91.7223L285.235 92.2773C285.187 93.067 285.133 93.8568 285.08 94.6359L284.989 96.0286C284.925 97.24 284.867 98.4086 284.819 99.5292V99.6039L284.754 99.6413C284.498 99.7907 284.184 99.8921 283.783 99.9508C283.42 100.015 283.052 100.047 282.689 100.047H282.54L282.556 99.8974C282.903 97.0158 283.271 94.1236 283.65 91.3008C284.023 88.5473 284.413 85.7084 284.845 82.6348L284.856 82.5707L284.909 82.5387C285.144 82.3999 285.443 82.2932 285.848 82.2025C286.233 82.1011 286.59 82.0531 286.926 82.0531H287.017L287.049 82.1385L292.236 94.9507C293.02 92.9763 293.826 90.9699 294.643 88.9314C295.55 86.7116 296.409 84.5611 297.199 82.528L297.215 82.48L297.263 82.4587C297.545 82.3199 297.86 82.2132 298.196 82.1545C298.565 82.0851 298.917 82.0531 299.248 82.0531H299.365L299.381 82.1705L301.436 99.6199Z" fill="white"/>
<path d="M274.551 82.0531V99.6039L274.482 99.6413C274.21 99.796 273.89 99.8921 273.516 99.9508C273.169 100.015 272.801 100.047 272.422 100.047H272.289V82.544L272.358 82.5067C272.924 82.2079 273.618 82.0531 274.418 82.0531H274.551Z" fill="white"/>
<path d="M252.929 94.5824C254.836 94.5824 256.382 93.0366 256.382 91.1299C256.382 89.2231 254.836 87.6773 252.929 87.6773C251.022 87.6773 249.477 89.2231 249.477 91.1299C249.477 93.0366 251.022 94.5824 252.929 94.5824Z" fill="white"/>
</svg>
